HIERARCHY
ROOT root
{
	OFFSET 0.000000 0.000000 0.000000
	CHANNELS 6 Xposition Yposition Zposition Zrotation Yrotation Xrotation
	JOINT lhip
	{
		OFFSET 0.058581 -0.082280 -0.017664
		CHANNELS 3 Zrotation Yrotation Xrotation
		JOINT lknee
		{
			OFFSET 0.043451 -0.386469 0.008037
			CHANNELS 3 Zrotation Yrotation Xrotation
			JOINT lankle
			{
				OFFSET -0.014790 -0.426874 -0.037428
				CHANNELS 3 Zrotation Yrotation Xrotation
				JOINT ltoe
				{
					OFFSET 0.041054 -0.060286 0.122042
					CHANNELS 3 Zrotation Yrotation Xrotation
					End Site
					{
						OFFSET 0.000000 0.000000 0.000000
					}
				}
			}
		}
	}
	JOINT rhip
	{
		OFFSET -0.060310 -0.090513 -0.013543
		CHANNELS 3 Zrotation Yrotation Xrotation
		JOINT rknee
		{
			OFFSET -0.043257 -0.383688 -0.004843
			CHANNELS 3 Zrotation Yrotation Xrotation
			JOINT rankle
			{
				OFFSET 0.019056 -0.420046 -0.034562
				CHANNELS 3 Zrotation Yrotation Xrotation
				JOINT rtoe
				{
					OFFSET -0.034840 -0.062106 0.130323
					CHANNELS 3 Zrotation Yrotation Xrotation
					End Site
					{
						OFFSET 0.000000 0.000000 0.000000
					}
				}
			}
		}
	}
	JOINT lowerback
	{
		OFFSET 0.004439 0.124404 -0.038385
		CHANNELS 3 Zrotation Yrotation Xrotation
		JOINT upperback
		{
			OFFSET 0.004488 0.137956 0.026820
			CHANNELS 3 Zrotation Yrotation Xrotation
			JOINT chest
			{
				OFFSET -0.002265 0.056032 0.002855
				CHANNELS 3 Zrotation Yrotation Xrotation
				JOINT lowerneck
				{
					OFFSET -0.013390 0.211636 -0.033468
					CHANNELS 3 Zrotation Yrotation Xrotation
					JOINT upperneck
					{
						OFFSET 0.010113 0.088937 0.050410
						CHANNELS 3 Zrotation Yrotation Xrotation
						End Site
						{
							OFFSET 0.000000 0.000000 0.000000
						}
					}
				}
				JOINT lclavicle
				{
					OFFSET 0.071702 0.114000 -0.018898
					CHANNELS 3 Zrotation Yrotation Xrotation
					JOINT lshoulder
					{
						OFFSET 0.122921 0.045205 -0.019046
						CHANNELS 3 Zrotation Yrotation Xrotation
						JOINT lelbow
						{
							OFFSET 0.255332 -0.015649 -0.022946
							CHANNELS 3 Zrotation Yrotation Xrotation
							JOINT lwrist
							{
								OFFSET 0.265709 0.012698 -0.007375
								CHANNELS 3 Zrotation Yrotation Xrotation
								End Site
								{
									OFFSET 0.000000 0.000000 0.000000
								}
							}
						}
					}
				}
				JOINT rclavicle
				{
					OFFSET -0.082954 0.112472 -0.023707
					CHANNELS 3 Zrotation Yrotation Xrotation
					JOINT rshoulder
					{
						OFFSET -0.113228 0.046853 -0.008472
						CHANNELS 3 Zrotation Yrotation Xrotation
						JOINT relbow
						{
							OFFSET -0.260127 -0.014369 -0.031269
							CHANNELS 3 Zrotation Yrotation Xrotation
							JOINT rwrist
							{
								OFFSET -0.269108 0.006794 -0.006027
								CHANNELS 3 Zrotation Yrotation Xrotation
								End Site
								{
									OFFSET 0.000000 0.000000 0.000000
								}
							}
						}
					}
				}
			}
		}
	}
}
MOTION
Frames: 10
Frame Time: 0.033333
0.360539 0.206012 0.981136 94.720339 0.264711 104.602655 5.578130 1.036554 -22.849157 -2.827048 0.160367 14.230226 -0.235296 4.364715 -6.075243 0.000000 -0.000000 0.000000 -6.742872 -6.693082 -21.623756 -1.481940 -7.686049 17.616692 5.612077 -6.580462 -7.719629 0.000000 -0.000000 0.000000 -0.740129 4.309983 16.956819 4.858288 -3.597404 6.831791 5.430835 1.004553 -1.306972 15.791829 -24.555952 15.249647 21.222456 -4.733998 -19.220987 -5.854397 -10.475789 -8.721575 -68.876174 -19.420739 23.681890 99.388972 -77.608891 -73.640400 -0.597786 -9.713288 0.756198 -14.580259 23.380924 -7.865357 30.754371 55.257995 -0.468956 -29.637066 56.860259 -16.242749 -6.041765 11.288603 -5.300234 
0.361088 0.206040 0.980817 94.644073 0.186356 104.812905 5.534105 0.903640 -22.877430 -2.790602 0.443722 14.081999 -0.098919 4.240647 -6.043451 0.000000 -0.000000 0.000000 -6.877977 -6.585274 -21.719177 -1.535779 -7.933174 17.549171 5.663859 -6.338640 -7.814732 0.000000 -0.000000 0.000000 -0.683472 4.310708 16.851490 4.731058 -3.527123 7.274206 5.284626 1.142354 -1.489240 14.888307 -23.833906 13.887814 20.715541 -4.684961 -21.432730 -6.199185 -10.471480 -8.595454 -68.606536 -19.308191 23.546673 104.288421 -77.311820 -78.196310 -0.971752 -9.364045 0.441372 -13.219663 23.072172 -7.801265 31.114007 53.708038 -0.851273 -38.156180 61.613220 -24.615598 -6.057357 11.335882 -5.783463 
0.361428 0.206218 0.980522 94.655809 0.103349 105.045275 5.477297 0.684702 -22.959178 -2.689679 0.759542 13.935751 0.000244 4.090588 -5.947368 0.000000 -0.000000 0.000000 -7.010395 -6.508650 -21.895522 -1.614654 -8.217642 17.556154 5.764318 -6.133659 -7.855997 0.000000 -0.000000 0.000000 -0.634775 4.214014 16.912912 4.596638 -3.418085 6.964989 5.149685 1.202261 -1.329001 13.957909 -22.224490 12.216212 19.731837 -4.397265 -22.229001 -6.497413 -10.283890 -8.560636 -68.515172 -19.004832 23.545448 107.364888 -77.137340 -80.459337 -0.985712 -9.448702 0.179136 -11.611780 22.525161 -7.647210 31.202813 52.469992 -1.190504 -50.412171 65.846207 -37.058927 -6.358381 11.269821 -6.773136 
0.361736 0.206250 0.980475 94.564009 0.089088 105.143782 5.512719 0.604161 -22.873039 -2.681328 1.080329 13.806029 0.155492 3.937373 -5.846429 0.000000 -0.000000 0.000000 -7.095887 -6.427040 -21.995473 -1.694813 -8.457390 17.663741 5.841963 -5.726590 -7.808414 0.000000 -0.000000 0.000000 -0.503779 4.063109 16.981936 4.386243 -3.326549 6.566860 4.983450 1.193245 -1.094485 12.522361 -19.676445 11.487678 17.647816 -3.433624 -22.062592 -6.537078 -10.045878 -8.176513 -68.510306 -18.769446 22.876200 109.894343 -77.070795 -82.458642 -1.809386 -10.007933 0.337846 -10.277153 21.993491 -7.224982 30.707178 52.004424 -2.753478 -65.988558 68.744809 -53.084512 -4.672201 11.153160 -6.848518 
0.361815 0.206206 0.980508 94.417533 0.085390 105.127165 5.556076 0.570210 -22.710437 -2.677584 1.429266 13.688695 0.389773 3.748500 -5.695996 0.000000 -0.000000 0.000000 -7.149495 -6.298047 -22.074681 -1.812955 -8.631480 17.874243 5.901344 -5.413430 -7.740371 0.000000 -0.000000 0.000000 -0.379958 3.875373 17.044938 4.214417 -3.347159 6.545626 4.847784 1.123046 -0.973971 11.230827 -16.170792 10.901867 14.302532 -1.196745 -20.918215 -6.463058 -9.655270 -8.306156 -68.532565 -18.078706 22.794331 112.866249 -76.611630 -84.624124 -2.339282 -9.936260 -0.412127 -9.730780 21.276093 -7.463961 30.205250 52.440870 -2.916913 -82.058144 68.861553 -68.645912 -3.999677 10.941919 -7.377183 
0.361628 0.206112 0.980510 94.252940 0.087636 105.024167 5.552275 0.552861 -22.569763 -2.666414 1.561963 13.699552 0.588632 3.777802 -5.643646 0.000000 -0.000000 0.000000 -7.199607 -6.152508 -22.090152 -1.914797 -8.749960 18.037411 6.096501 -5.164749 -7.753865 0.000000 -0.000000 0.000000 -0.315768 3.655156 17.207196 4.021034 -3.487545 6.164269 4.715154 1.228384 -0.916346 9.417555 -11.820704 12.576420 12.189825 2.427602 -19.568165 -6.102510 -9.706641 -7.899085 -68.560809 -17.419561 22.546671 114.306889 -76.055388 -84.963755 -2.618820 -9.721582 -2.111007 -9.384503 20.873299 -7.205161 28.874999 53.392850 -4.072772 -94.413039 67.454445 -79.651074 -3.072164 10.602875 -8.149157 
0.361329 0.205964 0.980557 94.107972 0.007145 104.838457 5.477565 0.446316 -22.370843 -2.628478 1.776744 13.742976 0.787263 3.680587 -5.550760 0.000000 -0.000000 0.000000 -7.313106 -6.076347 -21.962039 -2.040794 -8.923767 18.117247 6.154717 -4.817541 -7.699460 0.000000 -0.000000 0.000000 -0.207888 3.506167 17.318706 3.886566 -3.561038 6.030681 4.650412 1.222651 -0.655096 8.516686 -7.882468 13.522589 9.088048 6.162403 -17.730410 -5.476606 -9.243280 -8.062648 -69.014172 -17.124574 22.448579 113.859901 -75.921298 -84.038323 -3.565352 -9.976346 -3.553190 -9.775856 20.183788 -7.367213 26.501046 54.657578 -5.827462 -102.209008 65.601079 -87.286019 -1.691975 10.534206 -7.943127 
0.360573 0.205837 0.980246 93.969900 -0.059452 104.748254 5.413340 0.463008 -22.372743 -2.659740 1.789583 13.824978 0.894247 3.748953 -5.500126 0.000000 -0.000000 0.000000 -7.404688 -6.010038 -22.025513 -2.108247 -8.996275 18.241121 6.222886 -4.660888 -7.792804 0.000000 -0.000000 0.000000 0.018633 3.467313 17.175624 3.748738 -3.652639 6.323257 4.518882 1.238699 -0.916638 7.819077 -4.279883 14.930932 7.212562 9.862410 -15.805043 -4.979620 -9.312183 -7.720088 -69.012467 -16.827164 21.982598 114.210131 -75.882254 -83.573720 -3.579043 -10.208350 -4.566000 -10.199536 19.959762 -6.842435 23.197223 55.565644 -8.588117 -106.779575 64.220899 -91.415643 -2.628243 10.766249 -7.731611 
0.359850 0.205678 0.980066 93.891180 -0.134254 104.727505 5.338402 0.424817 -22.360597 -2.680512 1.725418 13.706570 1.024487 3.918320 -5.391137 0.000000 -0.000000 0.000000 -7.469832 -6.032421 -22.101756 -2.146345 -8.969787 18.258282 6.194595 -4.607057 -7.872532 0.000000 -0.000000 0.000000 0.339344 3.502371 17.088158 3.579573 -3.609883 6.483502 4.448204 1.293444 -1.064619 7.560378 -1.642096 15.536726 5.455376 13.376458 -14.172763 -4.971345 -9.582418 -7.389161 -68.779730 -16.699274 21.670184 115.354049 -75.775063 -84.178249 -3.820066 -9.901285 -5.231842 -10.634636 19.505983 -6.450195 20.475806 56.243589 -11.051903 -110.396154 62.958476 -94.142717 -1.867122 10.608125 -6.442286 
0.359022 0.205475 0.980040 93.857761 -0.226866 104.688684 5.300599 0.394946 -22.313096 -2.802917 1.673496 13.558007 1.252627 4.126375 -5.292328 0.000000 -0.000000 0.000000 -7.570318 -6.128367 -22.105702 -2.163174 -8.963006 18.298661 6.335999 -4.463177 -7.862901 0.000000 -0.000000 0.000000 0.506940 3.475872 17.146777 3.487338 -3.556456 6.378084 4.398739 1.487490 -1.093350 7.249169 0.711582 16.241975 4.370771 15.812714 -14.051041 -4.713443 -9.760999 -6.801579 -68.991844 -16.878946 21.395917 116.625060 -75.563174 -84.774738 -4.336949 -9.497748 -5.454896 -10.869983 19.110410 -5.726197 18.684153 56.784214 -13.309991 -113.660378 61.602190 -94.793956 -1.469251 7.942546 -0.997026 
